<mxfile host="app.diagrams.net" modified="2023-01-24T01:47:31.370Z" agent="5.0 (X11; Linux x86_64) AppleWebKit/537.36 (KHTML, like Gecko) Chrome/105.0.0.0 Safari/537.36" etag="uzcRT3FGq-ChEgjNoVdX" version="20.8.10" type="github" pages="2">
  <diagram name="Page-1" id="nBvY57QGPpFiJTKceqXC">
    <mxGraphModel dx="880" dy="405" grid="1" gridSize="10" guides="1" tooltips="1" connect="1" arrows="1" fold="1" page="1" pageScale="1" pageWidth="827" pageHeight="1169" math="0" shadow="0">
      <root>
        <mxCell id="0" />
        <mxCell id="1" parent="0" />
        <mxCell id="EMAifBajjPSZFu5MLhwp-1" value="" style="ellipse;whiteSpace=wrap;html=1;" vertex="1" parent="1">
          <mxGeometry x="130" y="230" width="120" height="80" as="geometry" />
        </mxCell>
        <mxCell id="EMAifBajjPSZFu5MLhwp-2" value="" style="ellipse;whiteSpace=wrap;html=1;aspect=fixed;" vertex="1" parent="1">
          <mxGeometry x="390" y="190" width="80" height="80" as="geometry" />
        </mxCell>
        <mxCell id="EMAifBajjPSZFu5MLhwp-3" value="" style="rhombus;whiteSpace=wrap;html=1;" vertex="1" parent="1">
          <mxGeometry x="230" y="70" width="80" height="80" as="geometry" />
        </mxCell>
        <mxCell id="EMAifBajjPSZFu5MLhwp-4" value="" style="shape=document;whiteSpace=wrap;html=1;boundedLbl=1;" vertex="1" parent="1">
          <mxGeometry x="380" y="60" width="120" height="80" as="geometry" />
        </mxCell>
        <mxCell id="EMAifBajjPSZFu5MLhwp-5" value="" style="shape=document;whiteSpace=wrap;html=1;boundedLbl=1;" vertex="1" parent="1">
          <mxGeometry x="380" y="310" width="120" height="80" as="geometry" />
        </mxCell>
        <mxCell id="EMAifBajjPSZFu5MLhwp-6" value="" style="shape=trapezoid;perimeter=trapezoidPerimeter;whiteSpace=wrap;html=1;fixedSize=1;" vertex="1" parent="1">
          <mxGeometry x="50" y="70" width="120" height="60" as="geometry" />
        </mxCell>
      </root>
    </mxGraphModel>
  </diagram>
  <diagram id="gc6tXnKRmZ-u-tEZXNxb" name="Page-2">
    <mxGraphModel dx="880" dy="405" grid="1" gridSize="10" guides="1" tooltips="1" connect="1" arrows="1" fold="1" page="1" pageScale="1" pageWidth="827" pageHeight="1169" math="0" shadow="0">
      <root>
        <mxCell id="0" />
        <mxCell id="1" parent="0" />
        <mxCell id="u987ecDQApPEfyfVy-5e-1" value="" style="whiteSpace=wrap;html=1;aspect=fixed;" vertex="1" parent="1">
          <mxGeometry x="230" y="230" width="80" height="80" as="geometry" />
        </mxCell>
        <mxCell id="u987ecDQApPEfyfVy-5e-2" value="" style="ellipse;shape=cloud;whiteSpace=wrap;html=1;" vertex="1" parent="1">
          <mxGeometry x="240" y="220" width="120" height="80" as="geometry" />
        </mxCell>
        <mxCell id="u987ecDQApPEfyfVy-5e-3" value="" style="ellipse;shape=cloud;whiteSpace=wrap;html=1;" vertex="1" parent="1">
          <mxGeometry x="294" y="250" width="120" height="80" as="geometry" />
        </mxCell>
        <mxCell id="u987ecDQApPEfyfVy-5e-4" value="" style="ellipse;shape=cloud;whiteSpace=wrap;html=1;" vertex="1" parent="1">
          <mxGeometry x="200" y="60" width="120" height="80" as="geometry" />
        </mxCell>
        <mxCell id="u987ecDQApPEfyfVy-5e-5" value="" style="shape=step;perimeter=stepPerimeter;whiteSpace=wrap;html=1;fixedSize=1;" vertex="1" parent="1">
          <mxGeometry x="490" y="170" width="120" height="80" as="geometry" />
        </mxCell>
      </root>
    </mxGraphModel>
  </diagram>
</mxfile>
